<?xml version="1.0" encoding="UTF-8"?>
<svg width="23px" height="30px" viewBox="0 0 23 30" version="1.1" xmlns="http://www.w3.org/2000/svg" xmlns:xlink="http://www.w3.org/1999/xlink">
    <title>Shape</title>
    <g id="Page-1" stroke="none" stroke-width="1" fill="none" fill-rule="evenodd">
        <g id="padlock" fill="#777777" fill-rule="nonzero">
            <path d="M20.125,11.25 L19.1666667,11.25 L19.1666667,7.5 C19.1666667,3.36375 15.7281667,0 11.5,0 C7.27183333,0 3.83333333,3.36375 3.83333333,7.5 L3.83333333,11.25 L2.875,11.25 C1.29055556,11.25 0,12.51125 0,14.0625 L0,27.1875 C0,28.73875 1.29055556,30 2.875,30 L20.125,30 C21.7094444,30 23,28.73875 23,27.1875 L23,14.0625 C23,12.51125 21.7094444,11.25 20.125,11.25 Z M6.38888889,7.5 C6.38888889,4.7425 8.68122222,2.5 11.5,2.5 C14.3187778,2.5 16.6111111,4.7425 16.6111111,7.5 L16.6111111,11.25 L6.38888889,11.25 L6.38888889,7.5 Z M12.7777778,20.9025 L12.7777778,23.75 C12.7777778,24.44 12.2066111,25 11.5,25 C10.7933889,25 10.2222222,24.44 10.2222222,23.75 L10.2222222,20.9025 C9.46194444,20.46875 8.94444444,19.67125 8.94444444,18.75 C8.94444444,17.37125 10.0906111,16.25 11.5,16.25 C12.9093889,16.25 14.0555556,17.37125 14.0555556,18.75 C14.0555556,19.67125 13.5380556,20.46875 12.7777778,20.9025 Z" id="Shape"></path>
        </g>
    </g>
</svg>