<?xml version="1.0" encoding="UTF-8"?>
<svg width="123px" height="70px" viewBox="0 0 123 70" version="1.1" xmlns="http://www.w3.org/2000/svg" xmlns:xlink="http://www.w3.org/1999/xlink">
    <title>Combined Shape Copy</title>
    <g id="Page-1" stroke="none" stroke-width="1" fill="none" fill-rule="evenodd">
        <g id="Desktop-HD-Copy-3" transform="translate(-42.000000, -36.000000)" fill="#0040D5">
            <g id="Peers-logo" transform="translate(42.035156, 36.353516)">
                <path d="M122.4,57.6 L122.4,69.6 L110.4,69.6 L110.4,57.6 L122.4,57.6 Z M12,57.6 L12,69.6 L0,69.6 L0,57.6 L12,57.6 Z M18,57.6 L18,69.6 L14.4,69.6 L14.4,57.6 L18,57.6 Z M24,57.6 L24,69.6 L20.4,69.6 L20.4,57.6 L24,57.6 Z M30,57.6 L30,69.6 L26.4,69.6 L26.4,57.6 L30,57.6 Z M36,57.6 L36,69.6 L32.4,69.6 L32.4,57.6 L36,57.6 Z M42,57.6 L42,69.6 L38.4,69.6 L38.4,57.6 L42,57.6 Z M48,57.6 L48,69.6 L44.4,69.6 L44.4,57.6 L48,57.6 Z M54,57.6 L54,69.6 L50.4,69.6 L50.4,57.6 L54,57.6 Z M60,57.6 L60,69.6 L56.4,69.6 L56.4,57.6 L60,57.6 Z M66,57.6 L66,69.6 L62.4,69.6 L62.4,57.6 L66,57.6 Z M72,57.6 L72,69.6 L68.4,69.6 L68.4,57.6 L72,57.6 Z M78,57.6 L78,69.6 L74.4,69.6 L74.4,57.6 L78,57.6 Z M84,57.6 L84,69.6 L80.4,69.6 L80.4,57.6 L84,57.6 Z M90,57.6 L90,69.6 L86.4,69.6 L86.4,57.6 L90,57.6 Z M96,57.6 L96,69.6 L92.4,69.6 L92.4,57.6 L96,57.6 Z M102,57.6 L102,69.6 L98.4,69.6 L98.4,57.6 L102,57.6 Z M108,57.6 L108,69.6 L104.4,69.6 L104.4,57.6 L108,57.6 Z M38.4623745,14.4429907 C40.1493292,14.4429907 41.6796151,14.7332992 43.0532782,15.3139248 C44.4269413,15.8945505 45.5957424,16.6928988 46.5597165,17.7089936 C48.4876647,19.8863289 49.4516243,22.6200779 49.4516243,25.9102899 L49.4516243,36.0711878 L34.8474897,36.0711878 L34.8474897,41.079059 C34.8474897,42.2403103 35.172826,43.1354281 35.8235086,43.7644392 C36.4741911,44.3934503 37.3538043,44.7079511 38.4623745,44.7079511 C39.8601369,44.7079511 40.7879481,44.2966808 41.2458358,43.4741278 C41.7037235,42.6515748 41.9808619,41.8290341 42.0772593,41.0064811 L49.4516243,41.0064811 C49.4516243,44.2483077 48.4635657,46.8610839 46.4874188,48.8448882 C45.5234447,49.860983 44.3666931,50.6593313 43.0171294,51.239957 C41.6675656,51.8205826 40.1493292,52.1108911 38.4623745,52.1108911 C36.1488366,52.1108911 34.1847689,51.6270436 32.5701122,50.6593342 C30.9554556,49.6916248 29.7143576,48.4094291 28.8467809,46.8127086 C28.3165951,45.8449992 27.9551102,44.73215 27.7623154,43.4741278 C27.5695206,42.2161056 27.4731246,40.8371403 27.4731246,39.3371908 L27.4731246,27.216691 C27.4731246,25.7167414 27.5695206,24.3377762 27.7623154,23.079754 C27.9551102,21.8217318 28.3165951,20.7088826 28.8467809,19.7411732 C29.7143576,18.1444527 30.9554556,16.8622521 32.5701122,15.8945476 C34.1847689,14.9268382 36.1488366,14.4429907 38.4623745,14.4429907 Z M65.2125222,14.4429907 C66.8994768,14.4429907 68.4297628,14.7332992 69.8034259,15.3139248 C71.177089,15.8945505 72.34589,16.6928988 73.3098641,17.7089936 C75.2378124,19.8863289 76.201772,22.6200779 76.201772,25.9102899 L76.201772,36.0711878 L61.5976373,36.0711878 L61.5976373,41.079059 C61.5976373,42.2403103 61.9229737,43.1354281 62.5736562,43.7644392 C63.2243388,44.3934503 64.1039519,44.7079511 65.2125222,44.7079511 C66.6102846,44.7079511 67.5380958,44.2966808 67.9959835,43.4741278 C68.4538712,42.6515748 68.7310096,41.8290341 68.827407,41.0064811 L76.201772,41.0064811 C76.201772,44.2483077 75.2137134,46.8610839 73.2375665,48.8448882 C72.2735923,49.860983 71.1168408,50.6593313 69.767277,51.239957 C68.4177133,51.8205826 66.8994768,52.1108911 65.2125222,52.1108911 C62.8989843,52.1108911 60.9349165,51.6270436 59.3202599,50.6593342 C57.7056033,49.6916248 56.4645052,48.4094291 55.5969285,46.8127086 C55.0667428,45.8449992 54.7052579,44.73215 54.5124631,43.4741278 C54.3196683,42.2161056 54.2232723,40.8371403 54.2232723,39.3371908 L54.2232723,27.216691 C54.2232723,25.7167414 54.3196683,24.3377762 54.5124631,23.079754 C54.7052579,21.8217318 55.0667428,20.7088826 55.5969285,19.7411732 C56.4645052,18.1444527 57.7056033,16.8622521 59.3202599,15.8945476 C60.9349165,14.9268382 62.8989843,14.4429907 65.2125222,14.4429907 Z M111.627643,14.4429907 C113.121803,14.4429907 114.507495,14.7091068 115.784761,15.241347 C117.062026,15.7735872 118.158531,16.5235507 119.074306,17.4912601 C119.990081,18.4589695 120.713051,19.6081072 121.243237,20.9387076 C121.773423,22.2693081 122.038512,23.6845618 122.038512,25.1845114 L115.097933,25.1845114 C115.049734,23.9264892 114.652101,22.9829867 113.905021,22.3539756 C113.157941,21.7249644 112.302427,21.4104636 111.338452,21.4104636 C110.181684,21.4104636 109.290021,21.7854454 108.663438,22.5354202 C108.036855,23.285395 107.723568,24.1442242 107.723568,25.1119336 C107.723568,25.7893302 107.892261,26.4546204 108.229652,27.1078243 C108.567042,27.7610281 109.434606,28.3537439 110.832369,28.8859814 L115.17023,30.6278496 C117.917557,31.69233 119.809327,33.1438723 120.8456,34.9825202 C121.881872,36.8211589 122.4,38.829135 122.4,41.0064811 C122.4,42.5548162 122.122862,43.9942624 121.568576,45.3248628 C121.014291,46.6554632 120.255173,47.8287933 119.291199,48.8448882 C118.327225,49.860983 117.170473,50.6593313 115.82091,51.239957 C114.471346,51.8205826 113.001307,52.1108911 111.41075,52.1108911 C108.42243,52.1108911 105.916135,51.1673886 103.89179,49.2803552 C102.879617,48.3610313 102.060251,47.2118936 101.433668,45.8329077 C100.807085,44.4539218 100.469699,42.845129 100.4215,41.0064811 L107.362079,41.0064811 C107.506675,42.022576 107.856111,42.9660785 108.410396,43.837017 C108.964681,44.7079555 109.94069,45.1434182 111.338452,45.1434182 C112.398824,45.1434182 113.350734,44.7926288 114.194211,44.0910395 C115.037689,43.3894501 115.459421,42.4096591 115.459421,41.1516368 C115.459421,40.135542 115.194332,39.2646166 114.664146,38.5388345 C114.133961,37.8130524 113.170001,37.1840508 111.772239,36.6518106 L108.229652,35.3454094 C105.916114,34.4744709 104.09664,33.180179 102.771175,31.4624948 C101.445711,29.7448106 100.782989,27.6521704 100.782989,25.1845114 C100.782989,23.6361764 101.072177,22.1967302 101.650561,20.8661298 C102.228943,19.5355294 103.024212,18.3863917 104.036385,17.4186823 C105.000359,16.4509728 106.133012,15.7131055 107.434377,15.2050581 C108.735742,14.6970106 110.133483,14.4429907 111.627643,14.4429907 Z M11.0615475,0 C13.0858932,0 14.8692185,0.266116096 16.4115771,0.79835627 C17.9539357,1.33059644 19.3516771,2.27409897 20.6048435,3.62889214 C21.8580098,4.98368531 22.7255735,6.5682857 23.2075605,8.38274084 C23.6895476,10.197196 23.9305375,12.6527218 23.9305375,15.7493919 C23.9305375,18.0718945 23.7979931,20.0314766 23.5329002,21.6281971 C23.2678073,23.2249177 22.701481,24.7248447 21.8339043,26.1280234 C20.8217315,27.8215064 19.472188,29.1399991 17.7852333,30.0835158 C16.0982786,31.0270325 13.8811714,31.4987838 11.1338452,31.4987838 L7.37436503,31.4987838 L7.37436503,51.675424 L0,51.675424 L0,0 L11.0615475,0 Z M98.7586533,14.4429907 L98.7586533,22.2813977 C98.0356727,21.9910849 97.2886001,21.8459307 96.5174247,21.8459307 C95.7462454,21.8459307 94.9148302,21.9789887 94.0231542,22.2451088 C93.1314781,22.5112289 92.3241619,22.9587878 91.6011813,23.5877989 C90.8300021,24.21681 90.2034283,25.0393507 89.7214412,26.0554455 C89.2394542,27.0715404 88.9984643,28.3295438 88.9984643,29.8294934 L88.9984643,51.675424 L81.6240992,51.675424 L81.6240992,14.8784578 L88.9984643,14.8784578 L88.9984643,18.7976613 C90.4926241,17.4428681 91.9626626,16.3784037 93.4086237,15.6042362 C94.8545849,14.8300687 96.6379102,14.4429907 98.7586533,14.4429907 Z M38.4623745,21.8459307 C37.3538043,21.8459307 36.4741911,22.1967201 35.8235086,22.8983094 C35.172826,23.5998987 34.8474897,24.6522669 34.8474897,26.0554455 L34.8474897,30.2649604 L42.0772593,30.2649604 L42.0772593,26.0554455 C42.0772593,24.6522669 41.7519229,23.5998987 41.1012404,22.8983094 C40.4505579,22.1967201 39.5709447,21.8459307 38.4623745,21.8459307 Z M65.2125222,21.8459307 C64.1039519,21.8459307 63.2243388,22.1967201 62.5736562,22.8983094 C61.9229737,23.5998987 61.5976373,24.6522669 61.5976373,26.0554455 L61.5976373,30.2649604 L68.827407,30.2649604 L68.827407,26.0554455 C68.827407,24.6522669 68.5020706,23.5998987 67.8513881,22.8983094 C67.2007055,22.1967201 66.3210924,21.8459307 65.2125222,21.8459307 Z M11.2061429,6.9674729 L7.37436503,6.9674729 L7.37436503,24.5313108 L10.9169522,24.5313108 C12.411112,24.5313108 13.5678636,24.3135795 14.3872416,23.8781103 C15.2066155,23.442641 15.8090963,22.8378317 16.194684,22.0636642 C16.5802736,21.3378821 16.8092141,20.4427644 16.8815121,19.378284 C16.9538102,18.3138037 16.9899587,17.1283774 16.9899587,15.8219697 C16.9899587,14.612333 16.9658597,13.4631953 16.917661,12.3745222 C16.8694623,11.2858491 16.6525713,10.3302504 16.2669817,9.5076974 C15.881392,8.6851444 15.3030163,8.05614272 14.531837,7.62067349 C13.7606577,7.18520425 12.6521041,6.9674729 11.2061429,6.9674729 Z" id="Combined-Shape-Copy"></path>
            </g>
        </g>
    </g>
</svg>